<svg id="Calque_1" data-name="Calque 1" xmlns="http://www.w3.org/2000/svg" viewBox="0 0 55.72 21.19">
  <path id="Tracé_227" data-name="Tracé 227" d="M50.76,10.59c0-.51-.53-1.05-2-1.36h0L47.54,9h-.12A12.64,12.64,0,0,1,41,6.28C35.3,2,27.7,3.17,27.38,3.23l.45,3.2c.07,0,6.75-1,11.47,2.52l0,0h-33v3.24H39.54l0,0C34.78,15.76,28.1,14.76,28,14.75L27.58,18a18.41,18.41,0,0,0,2.77.18A18.41,18.41,0,0,0,41.23,14.9a12.82,12.82,0,0,1,6.17-2.7l.1,0h0C48.21,12.05,50.76,11.24,50.76,10.59Z" style="fill: #fff"/>
</svg>
