<svg xmlns="http://www.w3.org/2000/svg" viewBox="0 0 75 75">
    <path d="M37.5,0,40,3.93,43,.4l1.86,4.25,3.49-3.06,1.22,4.48,3.9-2.52L54,8.16l4.22-1.93-.12,4.64,4.46-1.29-.8,4.58,4.6-.63L64.9,17.94l4.64,0-2.08,4.15,4.59.72-2.66,3.8,4.41,1.39-3.18,3.38,4.18,2-3.64,2.88L75,38.92l-4,2.31,3.42,3.14-4.31,1.7L73,49.67,68.5,50.73l2.37,4-4.62.39L68,59.4l-4.63-.29,1.12,4.5-4.53-1,.45,4.62-4.35-1.61-.21,4.64L51.8,68.07l-.89,4.55-3.7-2.8L45.66,74.2,42.4,70.9,40.24,75,37.5,71.25,34.76,75,32.6,70.9l-3.26,3.3L27.8,69.83l-3.7,2.8-.9-4.56L19.14,70.3l-.22-4.64-4.35,1.62L15,62.66l-4.53,1,1.12-4.5L7,59.4l1.77-4.29-4.62-.39,2.37-4L2,49.67l2.92-3.6L.6,44.37,4,41.24,0,38.92l3.84-2.6L.2,33.44l4.18-2L1.2,28.05l4.43-1.38L3,22.87l4.58-.73L5.47,18l4.64,0L8.66,13.53l4.6.63-.8-4.58,4.46,1.29L16.8,6.23,21,8.16l.56-4.61,3.9,2.52L26.7,1.59l3.48,3.06L32,.4l3,3.54Z"
          style="fill: #10152e"/>
    <path d="M37.5,66.88A29.5,29.5,0,1,1,67,37.38,29.54,29.54,0,0,1,37.5,66.88Zm0-58A28.5,28.5,0,1,0,66,37.38,28.53,28.53,0,0,0,37.5,8.88Z"
          style="fill: #fff;opacity: 0.4000000059604645;isolation: isolate"/>
    <path d="M25.2,27.33a53.29,53.29,0,0,1,13.53,6.52c4.42-4.85,8-9.28,13.21-11.72C47.57,27,43.62,31,40.42,35c6,4.08,12.45,8.61,15,12.86C48,42.53,44.16,39.71,39.09,36.7A102.85,102.85,0,0,0,30,51c-.21.43-1.63.12-2.11-1.34,1.78-4.34,5.28-9.4,9.24-14.07a99.46,99.46,0,0,0-13.05-6C23.65,29.38,23.77,28,25.2,27.33Z"
          style="fill: #fff;stroke: #10152e;fill-rule: evenodd"/>
</svg>
