<svg class="play-icon" xmlns="http://www.w3.org/2000/svg" viewBox="0 0 221.46 70.38">
    <path d="M.25,58.24H7.87c10.66,0,12.05,11.89,12.05,11.89H201.55s1.38-11.89,12-11.89h7.61V12.39H213.6c-11.08,0-12-11.89-12-11.89H19.92s-1,11.89-12,11.89H.25Z"
          style="fill: #04081c" class="play-color"/>
    <path d="M201.55,70.38H19.69l0-.22c0-.12-1.49-11.67-11.8-11.67H0V12.14H7.87C18.58,12.14,19.63,1,19.67.48l0-.23H201.78l0,.23c0,.47,1.08,11.66,11.8,11.66h7.86V58.49H213.6a10.65,10.65,0,0,0-9.8,5.81,17.8,17.8,0,0,0-2,5.86l0,.22Zm-181.42-.5h181.2C201.6,68.23,203.65,58,213.6,58H221V12.64H213.6c-10.32,0-12.06-10.22-12.28-11.89H20.14c-.22,1.67-2,11.89-12.27,11.89H.5V58H7.87C17.81,58,19.87,68.23,20.13,69.88Z"
          style="fill: #fff" class="play-border"/>
    <path d="M196.09,64.62H25.38l0-.22c0-.12-1.39-11.13-11-11.13H6.91V17.37H14.3c10,0,11-10.67,11.05-11.13l0-.23H196.09l0,.23c0,.46,1,11.13,11,11.13h7.39v35.9h-7.39A9.93,9.93,0,0,0,198,58.81a17.28,17.28,0,0,0-1.87,5.59Zm-170.27-.5H195.65c.25-1.61,2.19-11.35,11.51-11.35h6.89V17.87h-6.89c-9.67,0-11.31-9.72-11.52-11.36H25.82C25.61,8.15,24,17.87,14.3,17.87H7.41v34.9h6.9C23.63,52.77,25.56,62.51,25.82,64.12Z"
          style="fill: #fff" class="play-border"/>
</svg>
