<svg id="Calque_1" data-name="Calque 1" xmlns="http://www.w3.org/2000/svg" viewBox="0 0 128.01 19.19">
  <polygon points="122.73 7.32 74.75 7.32 63.51 14.52 52.26 7.32 4.28 7.32 8.16 9.79 51.57 9.79 63.51 17.41 75.44 9.79 118.85 9.79 122.73 7.32" style="fill: #080e2b"/>
  <polygon points="63.51 10.97 57.53 7 63.51 3.02 69.48 7 63.51 10.97" style="fill: #080e2b"/>
  <g>
    <polygon points="50.5 11.88 25.28 11.88 29.16 14.35 54.5 14.35 50.5 11.88" style="fill: #080e2b"/>
    <polygon points="76.5 11.88 72.5 14.35 97.85 14.35 101.73 11.88 76.5 11.88" style="fill: #080e2b"/>
  </g>
  <polygon points="123.73 5.32 75.75 5.32 64.5 12.52 53.26 5.32 5.28 5.32 9.16 7.79 52.57 7.79 64.5 15.41 76.44 7.79 119.85 7.79 123.73 5.32" style="fill: #fff"/>
  <polygon points="64.5 8.97 58.53 5 64.5 1.02 70.48 5 64.5 8.97" style="fill: #fff"/>
  <g>
    <polygon points="51.5 9.88 26.28 9.88 30.16 12.35 55.5 12.35 51.5 9.88" style="fill: #fff"/>
    <polygon points="77.5 9.88 73.5 12.35 98.85 12.35 102.73 9.88 77.5 9.88" style="fill: #fff"/>
  </g>
</svg>
