<svg xmlns="http://www.w3.org/2000/svg" viewBox="0 0 559.52 526.87">
    <g style="opacity: 0.4">
      <ellipse  cx="288.13" cy="263.45" rx="259.62" ry="252.23" transform="translate(-17.73 20.8) rotate(-4.01)" style="fill: none"/>
      <path d="M31.54,232.65l-1-.13c7-53.74,32.34-104.93,71.38-144.16l.7.71C63.75,128.14,38.51,179.13,31.54,232.65Z" style="fill: #fff"/>
      <path d="M121.41,72l-.64-.77c2.12-1.74,4.29-3.48,6.47-5.17l.62.79C125.68,68.5,123.51,70.23,121.41,72Z" style="fill: #fff"/>
      <path d="M136.35,60.54l-.58-.82a262.08,262.08,0,0,1,23.68-15l.48.87A261.4,261.4,0,0,0,136.35,60.54Z" style="fill: #fff"/>
      <path d="M374.9,26.3A263,263,0,0,0,270.55,12.8a268.64,268.64,0,0,0-46.07,7.28l-.24-1a268.83,268.83,0,0,1,46.24-7.31A263.83,263.83,0,0,1,375.22,25.36Z" style="fill: #fff"/>
      <path d="M530.44,353.26l-.93-.37A245.39,245.39,0,0,0,493.4,109.73l.79-.62a246.39,246.39,0,0,1,36.25,244.15Z" style="fill: #fff"/>
      <path d="M479.91,432.77l-.73-.69a253.25,253.25,0,0,0,40.68-57.86l.89.46A254.94,254.94,0,0,1,479.91,432.77Z" style="fill: #fff"/>
      <path d="M287,515.76a264.47,264.47,0,0,1-115.78-26.53A257.26,257.26,0,0,1,71.62,403.6l.82-.56a256.31,256.31,0,0,0,99.23,85.29,266.07,266.07,0,0,0,227.21,1.86l.42.91a264.75,264.75,0,0,1-93.51,24Q296.39,515.76,287,515.76Z" style="fill: #fff"/>
      <path d="M36.63,327.24a247.24,247.24,0,0,1-7.52-45.62c-.48-6.81-.68-13.67-.59-20.39l1,0c-.09,6.68.11,13.52.59,20.3A246,246,0,0,0,37.6,327Z" style="fill: #fff"/>
    </g>
    <rect x="436.88" y="99.04" width="111.53" height="0.75" transform="translate(5.26 222.03) rotate(-25.53)" style="fill: #fff;opacity: 0.39800000190734863;isolation: isolate"/>
    <rect x="6.53" y="395.49" width="111.53" height="0.75" transform="translate(-164.53 65.5) rotate(-25.53)" style="fill: #fff;opacity: 0.39800000190734863;isolation: isolate"/>
    <rect x="490.61" y="71.79" width="58.54" height="0.75" transform="translate(56.73 319.09) rotate(-35.97)" style="fill: #fff;opacity: 0.39800000190734863;isolation: isolate"/>
</svg>
