<svg id="Calque_1" data-name="Calque 1" xmlns="http://www.w3.org/2000/svg" viewBox="0 0 300 300">
  <path d="M154.26,51.63a8,8,0,0,0-3.7,1l-64.51,42a39.5,39.5,0,0,1-19.6,5.2h-33a8.58,8.58,0,0,0-8.31,8.83v88.22a8.58,8.58,0,0,0,8.31,8.82H66.17a39.55,39.55,0,0,1,20,5.43l64.33,43.08a8.08,8.08,0,0,0,11.3-3.45,9.29,9.29,0,0,0,1-4.27V60.45a8.58,8.58,0,0,0-8.31-8.82Z" style="fill: #080e2b;fill-rule: evenodd"/>
  <path d="M188.37,208.65l-10.58-17a43.79,43.79,0,0,0,.2-74.23l10.68-16.91a63.79,63.79,0,0,1-.3,108.11Z" style="fill: #080e2b"/>
  <path d="M208.3,243.85,198,226.71a84.23,84.23,0,0,0,2.28-143l10.86-16.8a104.21,104.21,0,0,1-2.83,176.93Z" style="fill: #080e2b"/>
  <path d="M171.26,44.63a8,8,0,0,0-3.7,1l-64.51,42a39.5,39.5,0,0,1-19.6,5.2h-33a8.58,8.58,0,0,0-8.31,8.83v88.22a8.58,8.58,0,0,0,8.31,8.82H83.17a39.55,39.55,0,0,1,20,5.43l64.33,43.08a8.08,8.08,0,0,0,11.3-3.45,9.29,9.29,0,0,0,1-4.27V53.45a8.58,8.58,0,0,0-8.31-8.82Z" style="fill: #fff;fill-rule: evenodd"/>
  <path d="M204.37,200.65l-10.58-17a43.79,43.79,0,0,0,.2-74.23l10.68-16.91a63.79,63.79,0,0,1-.3,108.11Z" style="fill: #fff"/>
  <path d="M224.3,235.85,214,218.71a84.23,84.23,0,0,0,2.28-143l10.86-16.8a104.21,104.21,0,0,1-2.83,176.93Z" style="fill: #fff"/>
</svg>
