<svg id="Calque_1" data-name="Calque 1" xmlns="http://www.w3.org/2000/svg" viewBox="0 0 35.64 35.64">
  <g>
    <path d="M14,23.6V22.21l5-6.52h-3l-.26,1.61H14.2V14.09h7.56v1.45L16.85,22h3.27l.32-1.7H22V23.6Z" style="fill: #fff"/>
    <path d="M28.5,33.06H6.75L3.1,29.4V7.62L6.75,4H28.5l3.64,3.66V29.4Zm-21.33-1H28.08L31.14,29V8L28.08,5H7.17L4.1,8V29Z" style="fill: #fff"/>
    <polygon points="11.8 30.91 8.34 30.91 5.25 27.81 5.25 25 6 25 6 27.5 8.65 30.16 11.8 30.16 11.8 30.91" style="fill: #fff"/>
    <polygon points="26.91 30.91 23.43 30.91 23.43 30.16 26.59 30.16 29.25 27.5 29.25 24.9 30 24.9 30 27.81 26.91 30.91" style="fill: #fff"/>
    <polygon points="30 12.25 29.25 12.25 29.25 9.52 26.59 6.86 22.88 6.86 22.88 6.11 26.91 6.11 30 9.21 30 12.25" style="fill: #fff"/>
    <polygon points="6 11.97 5.25 11.97 5.25 9.21 8.34 6.11 11.99 6.11 11.99 6.86 8.65 6.86 6 9.52 6 11.97" style="fill: #fff"/>
  </g>
</svg>
